<svg id="visual" viewBox="0 0 960 540" width="960" height="540" xmlns="http://www.w3.org/2000/svg" xmlns:xlink="http://www.w3.org/1999/xlink" version="1.1"><rect x="0" y="0" width="960" height="540" fill="#001220"></rect><defs><linearGradient id="grad1_0" x1="43.8%" y1="0%" x2="100%" y2="100%"><stop offset="14.444444444444446%" stop-color="#001220" stop-opacity="1"></stop><stop offset="85.55555555555554%" stop-color="#001220" stop-opacity="1"></stop></linearGradient></defs><defs><linearGradient id="grad2_0" x1="0%" y1="0%" x2="56.3%" y2="100%"><stop offset="14.444444444444446%" stop-color="#001220" stop-opacity="1"></stop><stop offset="85.55555555555554%" stop-color="#001220" stop-opacity="1"></stop></linearGradient></defs><g transform="translate(960, 0)"><path d="M0 270C-38.4 269.6 -76.9 269.3 -103.3 249.4C-129.8 229.6 -144.3 190.4 -161.9 161.9C-179.6 133.5 -200.4 115.9 -219 90.7C-237.5 65.5 -253.8 32.8 -270 0L0 0Z" fill="#16385a"></path></g><g transform="translate(0, 540)"><path d="M0 -270C34.1 -265 68.2 -260 102.9 -248.5C137.7 -237.1 173.2 -219.1 190.9 -190.9C208.7 -162.7 208.7 -124.2 219 -90.7C229.2 -57.2 249.6 -28.6 270 0L0 0Z" fill="#16385a"></path></g></svg>