<svg id="visual" viewBox="0 0 900 450" width="900" height="450" xmlns="http://www.w3.org/2000/svg" xmlns:xlink="http://www.w3.org/1999/xlink" version="1.1"><rect width="900" height="450" fill="#1a0f2a"></rect><g><g transform="translate(843 318)"><path d="M0 -89.5L69.9 -55.8L87.2 19.9L38.8 80.6L-38.8 80.6L-87.2 19.9L-69.9 -55.8Z" fill="#8b7afd"></path></g><g transform="translate(451 412)"><path d="M0 -64L50 -39.9L62.4 14.2L27.8 57.7L-27.8 57.7L-62.4 14.2L-50 -39.9Z" fill="#8b7afd"></path></g><g transform="translate(7 330)"><path d="M0 -83L64.9 -51.7L80.9 18.5L36 74.8L-36 74.8L-80.9 18.5L-64.9 -51.7Z" fill="#8b7afd"></path></g><g transform="translate(779 46)"><path d="M0 -82L64.1 -51.1L79.9 18.2L35.6 73.9L-35.6 73.9L-79.9 18.2L-64.1 -51.1Z" fill="#8b7afd"></path></g></g></svg>